# xmcd
#
# Track frame offsets:
#	150
#	14752
#	29151
#	44408
#	62406
#	80203
#	94232
#	109292
#	125835
#	143328
#	161385
#	180940
#	194162
#	208279
#	224377
#	238281
#	255804
#	270522
#	291503
#	303188
#	320082
#
# Disc length: 4615 seconds
#
# Revision: 1
# Processed by: cddbd v1.5.2PL0 Copyright (c) Steve Scherf et al.
# Submitted via: audiograbber 1.83.01
#
DISCID=47120515
DTITLE=Kobus Muller - Tribute To Engelbert Humperdinck
DYEAR=2012
DGENRE=Cover
TTITLE0=Release Me
TTITLE1=The Last Waltz
TTITLE2=A Man Without Love
TTITLE3=Alone In The Night
TTITLE4=I Love You
TTITLE5=Spanish Eyes
TTITLE6=Quando Quando
TTITLE7=The Second Time
TTITLE8=Portofino
TTITLE9=Radio Dancing
TTITLE10=Senorita Bonita
TTITLE11=There Goes My Everything
TTITLE12=Les Bicyclettes Des Belsize
TTITLE13=This Time Tomorrow
TTITLE14=I Can Never Let You Go
TTITLE15=Under The Man In The Moon
TTITLE16=Tokyo Tears
TTITLE17=One World
TTITLE18=The Spanish Night Is Over
TTITLE19=Love Is All
TTITLE20=Radio Dancing Remix
EXTD=South African Artist
EXTT0=
EXTT1=
EXTT2=
EXTT3=
EXTT4=
EXTT5=
EXTT6=
EXTT7=
EXTT8=
EXTT9=
EXTT10=
EXTT11=
EXTT12=
EXTT13=
EXTT14=
EXTT15=
EXTT16=
EXTT17=
EXTT18=
EXTT19=
EXTT20=
PLAYORDER=
